<?xml version="1.0" encoding="iso-8859-1"?>
<!-- Generator: Adobe Illustrator 16.0.0, SVG Export Plug-In . SVG Version: 6.00 Build 0)  -->
<!DOCTYPE svg PUBLIC "-//W3C//DTD SVG 1.1//EN" "http://www.w3.org/Graphics/SVG/1.1/DTD/svg11.dtd">
<svg version="1.1" id="Capa_1" xmlns="http://www.w3.org/2000/svg" xmlns:xlink="http://www.w3.org/1999/xlink" x="0px" y="0px"
	 width="404.021px" height="404.021px" viewBox="0 0 404.021 404.021" style="enable-background:new 0 0 404.021 404.021;"
	 xml:space="preserve">
<g>
	<path d="M5.738,377.174h28.07c3.17,0,5.739-2.569,5.739-5.739v-37.333H93.23v37.333c0,3.17,2.57,5.739,5.739,5.739h206.083
		c3.17,0,5.74-2.569,5.74-5.739v-37.333h53.682v37.333c0,3.17,2.57,5.739,5.74,5.739h28.07c3.168,0,5.736-2.569,5.736-5.739V32.587
		c0-3.17-2.568-5.739-5.736-5.739h-28.07c-3.17,0-5.74,2.569-5.74,5.739V69.92h-53.682V32.587c0-3.17-2.57-5.739-5.74-5.739H98.969
		c-3.169,0-5.739,2.569-5.739,5.739V69.92H39.547V32.587c0-3.17-2.569-5.739-5.739-5.739H5.738C2.569,26.848,0,29.417,0,32.587
		v338.848C-0.001,374.604,2.568,377.174,5.738,377.174z M310.793,122.192h53.682v53.684h-53.682V122.192z M310.793,228.146h53.682
		v53.684h-53.682V228.146z M39.547,122.192H93.23v53.684H39.547V122.192z M39.547,228.146H93.23v53.684H39.547V228.146z"/>
</g>
<g>
</g>
<g>
</g>
<g>
</g>
<g>
</g>
<g>
</g>
<g>
</g>
<g>
</g>
<g>
</g>
<g>
</g>
<g>
</g>
<g>
</g>
<g>
</g>
<g>
</g>
<g>
</g>
<g>
</g>
</svg>
